<?xml version="1.0" encoding="utf-8"?>
<!-- Generator: Adobe Illustrator 16.0.0, SVG Export Plug-In . SVG Version: 6.00 Build 0)  -->
<!DOCTYPE svg PUBLIC "-//W3C//DTD SVG 1.1//EN" "http://www.w3.org/Graphics/SVG/1.1/DTD/svg11.dtd">
<svg version="1.1" id="Capa_1" xmlns="http://www.w3.org/2000/svg" xmlns:xlink="http://www.w3.org/1999/xlink" x="0px" y="0px"
	 width="100px" height="100px" viewBox="590 350 100 100" enable-background="new 590 350 100 100" xml:space="preserve">
<linearGradient id="SVGID_1_" gradientUnits="userSpaceOnUse" x1="597.5088" y1="400" x2="682.4912" y2="400">
	<stop  offset="0" style="stop-color:#D500F9"/>
	<stop  offset="0.1173" style="stop-color:#CB00FA"/>
	<stop  offset="0.3917" style="stop-color:#B800FD"/>
	<stop  offset="0.6796" style="stop-color:#AE00FF"/>
	<stop  offset="1" style="stop-color:#AA00FF"/>
</linearGradient>
<path fill="url(#SVGID_1_)" d="M621.044,379.201l2.664,2.664c0.469,0.468,1.083,0.703,1.698,0.703c0.615,0,1.229-0.234,1.698-0.703
	c0.938-0.938,0.938-2.459,0-3.396l-2.718-2.718c0.712-1.132,1.235-2.394,1.521-3.743h3.873c1.326,0,2.401-1.075,2.401-2.402
	s-1.075-2.402-2.401-2.402h-3.873c-0.286-1.349-0.809-2.611-1.521-3.743l2.718-2.718c0.938-0.937,0.938-2.458,0-3.396
	c-0.938-0.937-2.458-0.937-3.396,0l-2.664,2.664c-1.138-0.768-2.421-1.335-3.798-1.66v-3.68c0-1.326-1.075-2.401-2.401-2.401
	s-2.401,1.075-2.401,2.401v3.573c-1.444,0.272-2.793,0.813-3.995,1.57l-2.466-2.466c-0.938-0.938-2.458-0.938-3.396,0
	c-0.938,0.937-0.938,2.458,0,3.396l2.411,2.411c-0.814,1.208-1.406,2.578-1.718,4.049h-3.369c-1.326,0-2.401,1.075-2.401,2.402
	s1.075,2.402,2.401,2.402h3.369c0.313,1.472,0.904,2.841,1.718,4.05l-2.411,2.411c-0.938,0.938-0.938,2.458,0,3.396
	c0.469,0.469,1.083,0.704,1.698,0.704c0.615,0,1.229-0.234,1.698-0.704l2.466-2.466c1.202,0.757,2.55,1.297,3.995,1.57v3.572
	c0,1.327,1.075,2.402,2.401,2.402s2.401-1.075,2.401-2.402v-3.679C618.622,380.537,619.905,379.969,621.044,379.201z
	 M607.829,369.606c0-3.729,3.034-6.763,6.763-6.763c3.73,0,6.763,3.034,6.763,6.763s-3.033,6.763-6.763,6.763
	C610.863,376.369,607.829,373.335,607.829,369.606z M614.604,372.008c-1.327,0-2.402-1.075-2.402-2.402s1.074-2.402,2.401-2.402
	h0.001c1.327,0,2.401,1.075,2.401,2.402S615.93,372.008,614.604,372.008z M647.162,437.103c-1.453,4.752-5.894,8.292-13.197,10.522
	c-0.234,0.07-0.47,0.104-0.702,0.104c-1.028,0-1.979-0.666-2.296-1.7c-0.387-1.268,0.328-2.61,1.597-2.999
	c5.682-1.733,9.049-4.2,10.006-7.331c0.387-1.269,1.73-1.984,2.999-1.596S647.551,435.834,647.162,437.103z M670.317,446.029
	c-0.315,1.034-1.267,1.7-2.296,1.7c-0.232,0-0.469-0.032-0.701-0.104c-7.305-2.229-11.743-5.771-13.198-10.522
	c-0.387-1.269,0.327-2.61,1.596-2.999c1.269-0.387,2.61,0.327,2.999,1.596c0.957,3.131,4.323,5.598,10.005,7.331
	C669.99,443.419,670.704,444.762,670.317,446.029z M633.041,437.108c-7.777,0-14.106-6.329-14.106-14.107v-23.092
	c0-4.112,0.783-8.121,2.329-11.912c0.501-1.229,1.902-1.818,3.13-1.318c1.229,0.5,1.818,1.902,1.318,3.13
	c-1.31,3.214-1.975,6.613-1.975,10.1v23.092c0,5.131,4.174,9.304,9.304,9.304c1.326,0,2.4,1.075,2.4,2.401
	C635.441,436.033,634.367,437.108,633.041,437.108z M682.491,399.909v23.092c0,7.778-6.328,14.107-14.106,14.107
	c-1.325,0-2.4-1.075-2.4-2.402c0-1.326,1.075-2.401,2.4-2.401c5.13,0,9.304-4.173,9.304-9.304v-23.092
	c0-14.874-12.101-26.975-26.977-26.975c-5.216,0-10.286,1.509-14.662,4.365c-1.111,0.724-2.599,0.412-3.324-0.699
	c-0.725-1.111-0.412-2.598,0.699-3.323c5.159-3.366,11.136-5.146,17.287-5.146C668.235,368.132,682.491,382.387,682.491,399.909z
	 M658.835,427.435c-3.103,1.808-5.604,2.616-8.119,2.619c0,0-0.002,0-0.004,0l0,0c-0.001,0-0.001,0-0.003,0
	c-2.515-0.003-5.018-0.812-8.117-2.619c-7.444-4.338-12.068-12.59-12.068-21.537c0-3.745,0.602-7.2,1.788-10.265
	c0.004-0.012,0.01-0.023,0.016-0.035c0.017-0.042,0.035-0.083,0.055-0.124c0.017-0.036,0.033-0.071,0.052-0.105
	c0.016-0.031,0.034-0.062,0.052-0.092c0.025-0.043,0.05-0.084,0.078-0.125c0.007-0.009,0.011-0.019,0.018-0.028
	c0.009-0.014,0.021-0.026,0.032-0.04c0.031-0.043,0.063-0.085,0.098-0.126c0.018-0.022,0.038-0.043,0.056-0.064
	c0.034-0.037,0.067-0.073,0.102-0.108c0.023-0.023,0.047-0.044,0.071-0.067c0.033-0.029,0.066-0.058,0.101-0.086
	c0.028-0.022,0.057-0.044,0.086-0.066c0.032-0.024,0.066-0.047,0.099-0.069c0.032-0.021,0.064-0.041,0.097-0.061
	c0.034-0.02,0.068-0.04,0.104-0.058c0.033-0.018,0.065-0.034,0.099-0.049c0.038-0.018,0.076-0.034,0.114-0.051
	c0.032-0.013,0.063-0.025,0.094-0.036c0.042-0.016,0.085-0.03,0.129-0.043c0.028-0.009,0.058-0.017,0.086-0.024
	c0.048-0.013,0.095-0.023,0.144-0.033c0.026-0.005,0.051-0.01,0.077-0.014c0.051-0.009,0.103-0.015,0.154-0.02
	c0.025-0.002,0.05-0.004,0.075-0.006c0.051-0.003,0.103-0.005,0.154-0.005c0.028,0,0.055,0.001,0.083,0.002
	c0.047,0.001,0.095,0.004,0.143,0.009c0.033,0.002,0.066,0.007,0.099,0.011c0.042,0.006,0.084,0.013,0.125,0.021
	c0.04,0.008,0.079,0.016,0.118,0.026c0.036,0.009,0.071,0.017,0.106,0.027c0.044,0.014,0.088,0.028,0.132,0.044
	c0.02,0.008,0.04,0.013,0.06,0.02c0.013,0.005,0.024,0.011,0.037,0.017c0.04,0.016,0.08,0.035,0.119,0.053
	c0.037,0.018,0.074,0.035,0.109,0.054c0.03,0.016,0.06,0.033,0.089,0.051c0.044,0.025,0.086,0.051,0.127,0.08
	c0.01,0.006,0.019,0.011,0.027,0.017c0.945,0.659,2.041,1.252,3.257,1.761l0.246,0.104c0.039,0.017,0.077,0.033,0.116,0.049
	c0.104-0.268,0.219-0.565,0.352-0.894c0.619-1.533,1.236-3.271,1.426-3.935c0.363-1.276,1.691-2.015,2.967-1.652
	c1.275,0.364,2.015,1.692,1.651,2.967c-0.258,0.908-0.956,2.848-1.59,4.416c-0.148,0.37-0.275,0.697-0.385,0.984
	c-0.521,1.355-0.971,2.525-2.285,3.087c-0.413,0.176-0.809,0.251-1.207,0.251c-0.893,0-1.792-0.378-2.906-0.847l-0.241-0.101
	c-0.469-0.197-0.923-0.406-1.366-0.623c-0.418,1.798-0.633,3.737-0.633,5.8c0,7.243,3.71,13.907,9.683,17.387
	c2.326,1.355,4.084,1.962,5.703,1.967c1.618-0.005,3.378-0.611,5.702-1.967c5.974-3.479,9.684-10.144,9.684-17.387
	c0-2.063-0.216-4.005-0.634-5.806c-4.05,1.985-9.225,3.098-14.688,3.11c-0.002,0-0.004,0-0.005,0c-1.323,0-2.398-1.073-2.401-2.397
	c-0.002-1.326,1.071-2.403,2.397-2.406c5.856-0.011,11.226-1.421,14.731-3.869c0.011-0.007,0.02-0.011,0.029-0.018
	c0.041-0.027,0.082-0.053,0.125-0.079c0.029-0.017,0.06-0.035,0.091-0.051c0.034-0.02,0.072-0.037,0.107-0.054
	c0.04-0.019,0.079-0.037,0.12-0.053c0.012-0.005,0.024-0.012,0.036-0.016c0.021-0.008,0.041-0.013,0.062-0.02
	c0.043-0.017,0.086-0.031,0.13-0.044c0.034-0.01,0.07-0.019,0.106-0.028c0.039-0.009,0.078-0.019,0.118-0.025
	c0.041-0.009,0.084-0.015,0.125-0.021c0.034-0.004,0.066-0.009,0.099-0.012c0.049-0.004,0.095-0.007,0.143-0.008
	c0.029-0.001,0.057-0.002,0.086-0.002c0.049,0,0.101,0.002,0.15,0.005c0.025,0.001,0.051,0.003,0.078,0.006
	c0.05,0.005,0.1,0.011,0.149,0.02c0.027,0.004,0.055,0.01,0.082,0.015c0.046,0.009,0.093,0.02,0.139,0.032
	c0.031,0.008,0.06,0.016,0.089,0.025c0.043,0.013,0.084,0.026,0.125,0.042c0.034,0.011,0.067,0.024,0.1,0.038
	c0.036,0.015,0.073,0.032,0.109,0.049c0.034,0.016,0.068,0.033,0.103,0.05c0.034,0.019,0.067,0.037,0.102,0.057
	c0.032,0.021,0.064,0.041,0.098,0.063c0.032,0.021,0.064,0.044,0.097,0.067c0.029,0.022,0.061,0.044,0.088,0.068
	c0.034,0.027,0.066,0.055,0.1,0.084c0.023,0.022,0.049,0.045,0.071,0.068c0.036,0.035,0.068,0.069,0.102,0.106
	c0.021,0.021,0.039,0.042,0.058,0.066c0.034,0.039,0.065,0.081,0.096,0.124c0.011,0.014,0.022,0.026,0.033,0.041
	c0.007,0.009,0.012,0.02,0.019,0.029c0.025,0.04,0.052,0.081,0.077,0.123c0.017,0.031,0.036,0.062,0.053,0.093
	c0.018,0.034,0.034,0.068,0.052,0.104c0.019,0.041,0.039,0.083,0.057,0.126c0.003,0.011,0.01,0.021,0.014,0.033
	c1.186,3.065,1.787,6.519,1.787,10.265C670.901,414.843,666.277,423.096,658.835,427.435z"/>
</svg>
