<?xml version="1.0" encoding="utf-8"?>
<!-- Generator: Adobe Illustrator 16.0.0, SVG Export Plug-In . SVG Version: 6.00 Build 0)  -->
<!DOCTYPE svg PUBLIC "-//W3C//DTD SVG 1.1//EN" "http://www.w3.org/Graphics/SVG/1.1/DTD/svg11.dtd">
<svg version="1.1" id="Capa_1" xmlns="http://www.w3.org/2000/svg" xmlns:xlink="http://www.w3.org/1999/xlink" x="0px" y="0px"
	 width="100px" height="100px" viewBox="590 350 100 100" enable-background="new 590 350 100 100" xml:space="preserve">
<linearGradient id="SVGID_1_" gradientUnits="userSpaceOnUse" x1="597.4014" y1="400.001" x2="682.6006" y2="400.001">
	<stop  offset="0" style="stop-color:#D500F9"/>
	<stop  offset="0.1173" style="stop-color:#CB00FA"/>
	<stop  offset="0.3917" style="stop-color:#B800FD"/>
	<stop  offset="0.6796" style="stop-color:#AE00FF"/>
	<stop  offset="1" style="stop-color:#AA00FF"/>
</linearGradient>
<path fill="url(#SVGID_1_)" d="M644.69,434.608c-1.559,5.1-6.323,8.897-14.16,11.29c-0.25,0.076-0.504,0.113-0.753,0.113
	c-1.104,0-2.125-0.715-2.464-1.824c-0.416-1.362,0.351-2.802,1.712-3.218c6.098-1.86,9.709-4.508,10.737-7.867
	c0.416-1.361,1.855-2.127,3.216-1.712C644.341,431.807,645.106,433.247,644.69,434.608z M667.825,440.969
	c-6.098-1.861-9.709-4.508-10.737-7.867c-0.415-1.36-1.854-2.127-3.217-1.711c-1.361,0.416-2.127,1.856-1.711,3.218
	c1.559,5.1,6.324,8.897,14.16,11.29c0.251,0.076,0.504,0.112,0.754,0.112c1.104,0,2.124-0.715,2.463-1.825
	C669.953,442.825,669.186,441.386,667.825,440.969z M632.115,432.036c0-1.424-1.153-2.576-2.577-2.576
	c-5.505,0-9.982-4.479-9.982-9.983v-24.778c0-1.036,0.056-2.082,0.167-3.11c0.152-1.415-0.871-2.685-2.286-2.838
	c-1.417-0.152-2.686,0.871-2.838,2.286c-0.13,1.21-0.197,2.442-0.197,3.662v24.778c0,8.347,6.791,15.137,15.136,15.137
	C630.961,434.613,632.115,433.459,632.115,432.036z M648.501,360.6c-4.356,0-8.607,0.82-12.635,2.439
	c-1.32,0.531-1.96,2.032-1.429,3.352s2.031,1.961,3.351,1.429c3.414-1.372,7.018-2.067,10.713-2.067
	c15.961,0,28.946,12.985,28.946,28.945v24.778c0,5.505-4.479,9.983-9.983,9.983c-1.423,0-2.577,1.154-2.577,2.576
	c0,1.425,1.154,2.577,2.577,2.577c8.347,0,15.137-6.79,15.137-15.137v-24.778C682.601,375.897,667.304,360.6,648.501,360.6z
	 M670.164,401.125c0-4.021-0.646-7.728-1.918-11.016c-0.005-0.012-0.01-0.022-0.015-0.035c-0.019-0.046-0.04-0.093-0.063-0.138
	c-0.016-0.036-0.033-0.072-0.052-0.108c-0.02-0.034-0.039-0.068-0.059-0.103c-0.026-0.044-0.054-0.088-0.083-0.13
	c-0.006-0.01-0.013-0.021-0.019-0.031c-0.012-0.016-0.025-0.031-0.036-0.046c-0.032-0.045-0.067-0.09-0.103-0.132
	c-0.02-0.025-0.041-0.048-0.063-0.072c-0.034-0.039-0.07-0.076-0.107-0.112c-0.025-0.026-0.052-0.051-0.079-0.075
	c-0.034-0.031-0.069-0.061-0.104-0.089c-0.032-0.026-0.065-0.05-0.098-0.074c-0.032-0.025-0.067-0.049-0.101-0.071
	c-0.036-0.024-0.072-0.046-0.109-0.068c-0.034-0.021-0.069-0.041-0.105-0.059c-0.036-0.02-0.073-0.039-0.111-0.056
	c-0.038-0.018-0.077-0.035-0.116-0.051c-0.036-0.014-0.072-0.029-0.108-0.041c-0.043-0.017-0.087-0.031-0.131-0.044
	c-0.033-0.01-0.066-0.019-0.099-0.027c-0.049-0.013-0.099-0.024-0.148-0.034c-0.028-0.006-0.059-0.011-0.088-0.016
	c-0.053-0.008-0.106-0.015-0.159-0.02c-0.028-0.003-0.057-0.006-0.087-0.007c-0.053-0.004-0.106-0.006-0.16-0.006
	c-0.029,0-0.061,0.001-0.092,0.002c-0.05,0.002-0.102,0.005-0.151,0.009c-0.036,0.004-0.072,0.008-0.108,0.013
	c-0.044,0.006-0.089,0.013-0.132,0.021c-0.043,0.009-0.085,0.018-0.129,0.028c-0.037,0.01-0.074,0.019-0.112,0.03
	c-0.047,0.014-0.095,0.03-0.141,0.046c-0.021,0.008-0.044,0.014-0.065,0.022c-0.014,0.005-0.025,0.012-0.039,0.018
	c-0.043,0.017-0.085,0.037-0.128,0.057c-0.04,0.019-0.078,0.038-0.117,0.057c-0.032,0.018-0.063,0.036-0.095,0.055
	c-0.046,0.027-0.092,0.055-0.136,0.085c-0.01,0.007-0.02,0.012-0.03,0.018c-3.764,2.626-9.525,4.14-15.81,4.153
	c-1.422,0.002-2.573,1.159-2.571,2.582c0.003,1.421,1.156,2.571,2.577,2.571c0.002,0,0.003,0,0.005,0
	c5.862-0.011,11.416-1.207,15.762-3.337c0.449,1.932,0.68,4.015,0.68,6.23c0,7.772-3.981,14.922-10.391,18.657
	c-2.495,1.455-4.383,2.106-6.119,2.109c-1.736-0.003-3.623-0.654-6.119-2.109c-6.409-3.735-10.39-10.885-10.39-18.657
	c0-2.212,0.23-4.292,0.678-6.224c0.476,0.234,0.963,0.458,1.467,0.669l0.258,0.108c1.196,0.502,2.161,0.908,3.118,0.908
	c0.427,0,0.852-0.081,1.295-0.27c1.41-0.602,1.893-1.857,2.451-3.312c0.118-0.308,0.253-0.659,0.414-1.057
	c0.681-1.688,1.431-3.77,1.706-4.739c0.39-1.369-0.403-2.794-1.773-3.184c-1.369-0.388-2.793,0.405-3.183,1.774
	c-0.202,0.707-0.864,2.572-1.529,4.22c-0.143,0.353-0.267,0.672-0.377,0.96c-0.042-0.017-0.083-0.035-0.125-0.052l-0.264-0.111
	c-1.304-0.546-2.479-1.183-3.494-1.891c-0.009-0.007-0.02-0.012-0.029-0.019c-0.044-0.03-0.09-0.058-0.136-0.085
	c-0.032-0.019-0.063-0.038-0.096-0.055c-0.038-0.021-0.077-0.04-0.117-0.058c-0.042-0.02-0.084-0.04-0.127-0.057
	c-0.013-0.005-0.025-0.012-0.039-0.018c-0.021-0.008-0.043-0.014-0.065-0.022c-0.047-0.016-0.093-0.032-0.141-0.046
	c-0.037-0.011-0.075-0.021-0.112-0.03c-0.043-0.01-0.086-0.02-0.129-0.028c-0.044-0.008-0.088-0.015-0.132-0.021
	c-0.036-0.005-0.072-0.009-0.108-0.013c-0.05-0.004-0.101-0.008-0.151-0.009c-0.03-0.001-0.061-0.002-0.091-0.002
	c-0.055,0-0.109,0.002-0.163,0.006c-0.028,0.001-0.055,0.004-0.083,0.006c-0.055,0.005-0.11,0.012-0.164,0.021
	c-0.027,0.005-0.055,0.009-0.083,0.015c-0.052,0.01-0.104,0.021-0.154,0.036c-0.031,0.007-0.06,0.016-0.09,0.025
	c-0.048,0.014-0.094,0.03-0.141,0.046c-0.033,0.012-0.065,0.024-0.098,0.038c-0.042,0.018-0.084,0.036-0.126,0.056
	c-0.034,0.017-0.068,0.034-0.102,0.052c-0.039,0.021-0.078,0.042-0.115,0.064c-0.034,0.021-0.067,0.041-0.099,0.063
	c-0.038,0.025-0.074,0.051-0.111,0.077c-0.029,0.022-0.059,0.044-0.088,0.068c-0.039,0.03-0.075,0.063-0.112,0.095
	c-0.024,0.022-0.049,0.045-0.073,0.069c-0.039,0.038-0.076,0.077-0.112,0.117c-0.02,0.022-0.04,0.045-0.059,0.068
	c-0.036,0.043-0.071,0.088-0.105,0.135c-0.011,0.015-0.023,0.029-0.034,0.044c-0.007,0.009-0.012,0.02-0.019,0.03
	c-0.029,0.044-0.057,0.088-0.084,0.134c-0.019,0.032-0.038,0.065-0.056,0.098c-0.019,0.037-0.037,0.074-0.055,0.112
	c-0.021,0.044-0.042,0.089-0.06,0.134c-0.005,0.012-0.011,0.023-0.016,0.037c-1.272,3.289-1.918,6.995-1.918,11.016
	c0,9.599,4.961,18.454,12.949,23.109c3.326,1.94,6.013,2.806,8.71,2.811c0.002,0,0.003,0,0.004,0c0.002,0,0.004,0,0.005,0
	c2.697-0.005,5.384-0.87,8.71-2.811C665.203,419.579,670.164,410.724,670.164,401.125z M613.996,385.684c-0.001,0-0.002,0-0.003,0
	c0,0-0.002,0-0.002,0c-0.16,0-0.316-0.016-0.47-0.044c-0.001,0-0.004,0-0.005,0c-5.721-1.08-13.055-9.078-15.387-16.778
	c-1.454-4.801-0.711-8.956,2.091-11.699c2.088-2.044,4.848-3.171,7.771-3.171c2.152,0,4.225,0.616,6.002,1.761
	c1.778-1.145,3.85-1.761,6.003-1.761c2.923,0,5.683,1.126,7.771,3.171c2.802,2.744,3.545,6.898,2.091,11.699
	c-2.332,7.701-9.666,15.698-15.386,16.778c-0.001,0-0.004,0-0.005,0C614.312,385.668,614.156,385.684,613.996,385.684z
	 M613.993,380.449c3.497-1.109,9.186-7.314,10.933-13.082c0.616-2.032,0.982-4.813-0.764-6.523c-1.12-1.096-2.598-1.699-4.166-1.699
	c-1.526,0-2.977,0.577-4.087,1.624c-0.536,0.507-1.233,0.735-1.916,0.696c-0.682,0.039-1.379-0.189-1.916-0.696
	c-1.109-1.047-2.561-1.624-4.087-1.624c-1.567,0-3.046,0.604-4.166,1.7c-1.746,1.71-1.379,4.491-0.764,6.523
	C604.808,373.135,610.496,379.34,613.993,380.449z"/>
</svg>
