<?xml version="1.0" encoding="utf-8"?>
<!-- Generator: Adobe Illustrator 16.0.0, SVG Export Plug-In . SVG Version: 6.00 Build 0)  -->
<!DOCTYPE svg PUBLIC "-//W3C//DTD SVG 1.1//EN" "http://www.w3.org/Graphics/SVG/1.1/DTD/svg11.dtd">
<svg version="1.1" id="Layer_1" xmlns="http://www.w3.org/2000/svg" xmlns:xlink="http://www.w3.org/1999/xlink" x="0px" y="0px"
	 width="100px" height="100px" viewBox="110 190 100 100" enable-background="new 110 190 100 100" xml:space="preserve">
<g>
	<linearGradient id="SVGID_1_" gradientUnits="userSpaceOnUse" x1="124.6685" y1="239.5898" x2="195.7549" y2="239.5898">
		<stop  offset="0" style="stop-color:#D500F9"/>
		<stop  offset="0.1173" style="stop-color:#CB00FA"/>
		<stop  offset="0.3917" style="stop-color:#B800FD"/>
		<stop  offset="0.6796" style="stop-color:#AE00FF"/>
		<stop  offset="1" style="stop-color:#AA00FF"/>
	</linearGradient>
	<path fill="url(#SVGID_1_)" d="M162.525,213.814v-3.122h14.903c1.207,0,2.215-1.007,2.215-2.215c0-5.94-4.834-10.773-10.773-10.773
		c-2.416,0-4.531,0.806-6.345,2.114v-3.322c0-1.208-1.006-2.215-2.214-2.215c-1.208,0-2.215,1.007-2.215,2.215v17.419
		c-18.627,1.107-33.428,16.513-33.428,35.441c0,19.634,15.908,35.542,35.542,35.542c19.634,0,35.542-15.908,35.542-35.542
		C195.954,230.428,181.153,215.022,162.525,213.814z M168.87,202.135c2.719,0,5.033,1.711,5.939,4.128h-11.88
		C163.835,203.947,166.151,202.135,168.87,202.135z M160.311,280.569c-17.217,0-31.212-13.996-31.212-31.213
		c0-17.218,13.995-31.213,31.212-31.213c17.217,0,31.213,13.995,31.213,31.213C191.524,266.573,177.528,280.569,160.311,280.569z"/>
	<linearGradient id="SVGID_2_" gradientUnits="userSpaceOnUse" x1="132.7231" y1="262.043" x2="162.5322" y2="262.043">
		<stop  offset="0" style="stop-color:#D500F9"/>
		<stop  offset="0.1173" style="stop-color:#CB00FA"/>
		<stop  offset="0.3917" style="stop-color:#B800FD"/>
		<stop  offset="0.6796" style="stop-color:#AE00FF"/>
		<stop  offset="1" style="stop-color:#AA00FF"/>
	</linearGradient>
	<path fill="url(#SVGID_2_)" d="M160.311,272.514c-12.787,0-23.157-10.37-23.157-23.157c0-1.209-1.007-2.215-2.216-2.215
		c-1.208,0-2.215,1.006-2.215,2.215c0,15.203,12.385,27.588,27.588,27.588c1.208,0,2.214-1.007,2.214-2.215
		C162.627,273.622,161.621,272.514,160.311,272.514z"/>
	<linearGradient id="SVGID_3_" gradientUnits="userSpaceOnUse" x1="169.5752" y1="229.521" x2="174.0049" y2="229.521">
		<stop  offset="0" style="stop-color:#D500F9"/>
		<stop  offset="0.1173" style="stop-color:#CB00FA"/>
		<stop  offset="0.3917" style="stop-color:#B800FD"/>
		<stop  offset="0.6796" style="stop-color:#AE00FF"/>
		<stop  offset="1" style="stop-color:#AA00FF"/>
	</linearGradient>
	<path fill="url(#SVGID_3_)" d="M170.28,227.91c-0.404,0.402-0.705,1.007-0.705,1.611c0,0.503,0.301,1.208,0.705,1.51
		c0.402,0.403,1.006,0.705,1.51,0.705c0.604,0,1.207-0.302,1.611-0.705c0.402-0.402,0.604-1.007,0.604-1.51
		c0-0.604-0.303-1.209-0.604-1.611C172.595,227.104,171.085,227.104,170.28,227.91z"/>
	<linearGradient id="SVGID_4_" gradientUnits="userSpaceOnUse" x1="175.2139" y1="230.5278" x2="179.6436" y2="230.5278">
		<stop  offset="0" style="stop-color:#D500F9"/>
		<stop  offset="0.1173" style="stop-color:#CB00FA"/>
		<stop  offset="0.3917" style="stop-color:#B800FD"/>
		<stop  offset="0.6796" style="stop-color:#AE00FF"/>
		<stop  offset="1" style="stop-color:#AA00FF"/>
	</linearGradient>
	<path fill="url(#SVGID_4_)" d="M178.938,232.139c0.402-0.402,0.705-1.007,0.705-1.611c0-0.503-0.303-1.208-0.705-1.61
		c-0.805-0.806-2.215-0.806-3.121,0c-0.402,0.402-0.604,1.007-0.604,1.61c0,0.504,0.201,1.209,0.604,1.611
		c0.402,0.403,1.006,0.604,1.611,0.604C177.931,232.743,178.536,232.44,178.938,232.139z"/>
	<linearGradient id="SVGID_5_" gradientUnits="userSpaceOnUse" x1="177.3271" y1="235.9272" x2="181.7568" y2="235.9272">
		<stop  offset="0" style="stop-color:#D500F9"/>
		<stop  offset="0.1173" style="stop-color:#CB00FA"/>
		<stop  offset="0.3917" style="stop-color:#B800FD"/>
		<stop  offset="0.6796" style="stop-color:#AE00FF"/>
		<stop  offset="1" style="stop-color:#AA00FF"/>
	</linearGradient>
	<path fill="url(#SVGID_5_)" d="M177.931,234.354c-0.402,0.403-0.604,1.008-0.604,1.611c0,0.504,0.303,1.208,0.604,1.611
		c0.404,0.402,1.008,0.604,1.611,0.604c0.504,0,1.209-0.302,1.611-0.604c0.402-0.403,0.604-1.007,0.604-1.611
		c0-0.503-0.301-1.208-0.604-1.611C180.146,233.448,178.737,233.448,177.931,234.354z"/>
	<linearGradient id="SVGID_6_" gradientUnits="userSpaceOnUse" x1="165.2451" y1="273.3193" x2="169.6748" y2="273.3193">
		<stop  offset="0" style="stop-color:#D500F9"/>
		<stop  offset="0.1173" style="stop-color:#CB00FA"/>
		<stop  offset="0.3917" style="stop-color:#B800FD"/>
		<stop  offset="0.6796" style="stop-color:#AE00FF"/>
		<stop  offset="1" style="stop-color:#AA00FF"/>
	</linearGradient>
	<path fill="url(#SVGID_6_)" d="M165.849,271.709c-0.402,0.402-0.604,1.007-0.604,1.61c0,0.504,0.201,1.209,0.604,1.511
		c0.404,0.402,1.008,0.704,1.611,0.704c0.504,0,1.209-0.302,1.611-0.704c0.402-0.403,0.604-1.007,0.604-1.511
		c0-0.604-0.301-1.208-0.705-1.61C168.165,270.903,166.655,270.903,165.849,271.709z"/>
</g>
</svg>
