<?xml version="1.0" encoding="utf-8"?>
<!-- Generator: Adobe Illustrator 16.0.0, SVG Export Plug-In . SVG Version: 6.00 Build 0)  -->
<!DOCTYPE svg PUBLIC "-//W3C//DTD SVG 1.1//EN" "http://www.w3.org/Graphics/SVG/1.1/DTD/svg11.dtd">
<svg version="1.1" id="Layer_1" xmlns="http://www.w3.org/2000/svg" xmlns:xlink="http://www.w3.org/1999/xlink" x="0px" y="0px"
	 width="100px" height="100px" viewBox="110 190 100 100" enable-background="new 110 190 100 100" xml:space="preserve">
<linearGradient id="SVGID_1_" gradientUnits="userSpaceOnUse" x1="113.5" y1="240" x2="206.5" y2="240">
	<stop  offset="0" style="stop-color:#D500F9"/>
	<stop  offset="0.1173" style="stop-color:#CB00FA"/>
	<stop  offset="0.3917" style="stop-color:#B800FD"/>
	<stop  offset="0.6796" style="stop-color:#AE00FF"/>
	<stop  offset="1" style="stop-color:#AA00FF"/>
</linearGradient>
<path fill="url(#SVGID_1_)" d="M205.527,207.758l-13.286-13.286c-0.648-0.648-1.499-0.973-2.349-0.973s-1.699,0.324-2.348,0.973
	l-73.072,73.072c-1.297,1.297-1.297,3.399,0,4.696l13.286,13.286c0.648,0.648,1.499,0.973,2.348,0.973c0.85,0,1.7-0.324,2.349-0.973
	l73.072-73.072C206.824,211.159,206.824,209.056,205.527,207.758z M130.107,283.179l-13.286-13.286l5.469-5.469l6.643,6.643
	c0.324,0.325,0.749,0.487,1.174,0.487c0.425,0,0.85-0.162,1.174-0.487c0.649-0.648,0.649-1.699,0-2.348l-6.643-6.643l4.295-4.295
	l3.321,3.321c0.324,0.325,0.749,0.487,1.174,0.487c0.425,0,0.85-0.162,1.174-0.487c0.649-0.648,0.649-1.699,0-2.349l-3.321-3.32
	l4.294-4.295l6.643,6.643c0.324,0.324,0.749,0.486,1.174,0.486c0.425,0,0.85-0.162,1.174-0.486c0.649-0.648,0.649-1.699,0-2.348
	l-6.643-6.644l4.294-4.294l3.321,3.32c0.324,0.325,0.75,0.487,1.174,0.487s0.85-0.162,1.174-0.487c0.649-0.648,0.649-1.699,0-2.348
	l-3.321-3.321l4.294-4.295l6.643,6.644c0.324,0.324,0.749,0.486,1.174,0.486c0.425,0,0.85-0.162,1.174-0.486
	c0.649-0.649,0.649-1.7,0-2.349l-6.643-6.643l4.294-4.294l3.321,3.321c0.325,0.324,0.75,0.487,1.174,0.487s0.85-0.163,1.174-0.487
	c0.649-0.648,0.649-1.7,0-2.348l-3.321-3.322l4.295-4.294l6.643,6.643c0.324,0.324,0.749,0.486,1.174,0.486s0.851-0.162,1.175-0.486
	c0.648-0.649,0.648-1.7,0-2.349l-6.644-6.643l4.295-4.294l3.321,3.321c0.324,0.324,0.749,0.486,1.175,0.486
	c0.425,0,0.85-0.162,1.174-0.486c0.648-0.649,0.648-1.7,0-2.348l-3.321-3.322l4.294-4.294l6.644,6.643
	c0.324,0.324,0.749,0.486,1.174,0.486s0.85-0.162,1.174-0.486c0.649-0.649,0.649-1.7,0-2.349l-6.643-6.643l12.111-12.112
	l13.286,13.286L130.107,283.179z"/>
</svg>
