<?xml version="1.0" encoding="utf-8"?>
<!-- Generator: Adobe Illustrator 16.0.0, SVG Export Plug-In . SVG Version: 6.00 Build 0)  -->
<!DOCTYPE svg PUBLIC "-//W3C//DTD SVG 1.1//EN" "http://www.w3.org/Graphics/SVG/1.1/DTD/svg11.dtd">
<svg version="1.1" id="Capa_1" xmlns="http://www.w3.org/2000/svg" xmlns:xlink="http://www.w3.org/1999/xlink" x="0px" y="0px"
	 width="100px" height="100px" viewBox="590 350 100 100" enable-background="new 590 350 100 100" xml:space="preserve">
<linearGradient id="SVGID_1_" gradientUnits="userSpaceOnUse" x1="608.6675" y1="400.001" x2="671.332" y2="400.001">
	<stop  offset="0" style="stop-color:#D500F9"/>
	<stop  offset="0.1173" style="stop-color:#CB00FA"/>
	<stop  offset="0.3917" style="stop-color:#B800FD"/>
	<stop  offset="0.6796" style="stop-color:#AE00FF"/>
	<stop  offset="1" style="stop-color:#AA00FF"/>
</linearGradient>
<path fill="url(#SVGID_1_)" d="M636.499,435.912c-1.433,4.686-5.81,8.176-13.011,10.374c-0.23,0.07-0.463,0.104-0.692,0.104
	c-1.014,0-1.952-0.657-2.264-1.678c-0.381-1.251,0.323-2.574,1.573-2.956c5.603-1.71,8.922-4.143,9.866-7.229
	c0.382-1.251,1.706-1.954,2.956-1.571C636.177,433.338,636.881,434.661,636.499,435.912z M624.943,433.549
	c0-1.308-1.06-2.368-2.368-2.368c-5.058,0-9.173-4.114-9.173-9.173V399.24c0-3.438,0.655-6.788,1.947-9.958
	c0.493-1.211-0.088-2.593-1.299-3.086c-1.211-0.494-2.592,0.088-3.086,1.299c-1.524,3.74-2.296,7.692-2.296,11.745v22.768
	c0,7.669,6.239,13.908,13.908,13.908C623.883,435.916,624.943,434.856,624.943,433.549z M659.905,405.145
	c0-3.674-0.587-7.063-1.745-10.074c-0.031-0.088-0.068-0.175-0.112-0.261c-0.152-0.302-0.363-0.561-0.613-0.765
	c-0.196-0.161-0.414-0.286-0.645-0.375c-0.419-0.163-0.885-0.207-1.344-0.109c-0.184,0.038-0.363,0.099-0.538,0.183
	c-0.134,0.064-0.259,0.14-0.375,0.225c-3.459,2.393-8.732,3.771-14.479,3.783c-1.308,0.002-2.366,1.064-2.363,2.372
	c0.003,1.306,1.062,2.363,2.368,2.363c0.001,0,0.003,0,0.004,0c5.388-0.01,10.494-1.106,14.487-3.064
	c0.412,1.774,0.621,3.689,0.621,5.723c0,7.143-3.659,13.712-9.549,17.144c-2.293,1.337-4.027,1.935-5.622,1.938
	c-1.595-0.004-3.329-0.602-5.623-1.938c-5.889-3.433-9.547-10.001-9.547-17.144c0-2.032,0.208-3.945,0.619-5.718
	c0.438,0.215,0.889,0.42,1.352,0.615l0.237,0.099c1.588,0.667,2.735,1.15,4.055,0.586c1.296-0.553,1.739-1.706,2.252-3.042
	c0.109-0.283,0.232-0.606,0.379-0.971c0.625-1.547,1.314-3.46,1.569-4.355c0.357-1.257-0.372-2.567-1.629-2.925
	c-1.258-0.358-2.567,0.371-2.925,1.629c-0.186,0.653-0.795,2.367-1.405,3.878c-0.131,0.325-0.245,0.618-0.346,0.882
	c-0.039-0.016-0.077-0.032-0.115-0.048l-0.241-0.102c-1.177-0.493-2.242-1.067-3.165-1.706c-0.114-0.084-0.237-0.158-0.369-0.221
	c-0.177-0.086-0.361-0.148-0.548-0.188c-0.458-0.096-0.921-0.052-1.339,0.11c-0.235,0.091-0.458,0.22-0.657,0.386
	c-0.243,0.201-0.448,0.452-0.598,0.747c-0.045,0.088-0.084,0.179-0.118,0.27c-1.157,3.01-1.743,6.399-1.743,10.074
	c0,8.82,4.559,16.957,11.898,21.234c3.056,1.781,5.524,2.577,8.001,2.582c0.001,0,0.003,0,0.005,0h0c0.002,0,0.003,0,0.005,0
	c2.478-0.005,4.945-0.801,8.001-2.582C655.346,422.102,659.905,413.966,659.905,405.145z M657.756,441.757
	c-5.602-1.71-8.922-4.143-9.865-7.229c-0.383-1.251-1.705-1.954-2.957-1.571c-1.25,0.382-1.954,1.705-1.572,2.956
	c1.434,4.686,5.811,8.176,13.013,10.374c0.229,0.07,0.463,0.104,0.691,0.104c1.014,0,1.952-0.657,2.264-1.678
	C659.711,443.462,659.007,442.139,657.756,441.757z M671.332,399.241v22.768c0,7.668-6.239,13.907-13.908,13.907
	c-1.308,0-2.367-1.06-2.367-2.367s1.06-2.367,2.367-2.367c5.058,0,9.173-4.115,9.173-9.173v-22.768
	c0-13.834-10.618-25.234-24.132-26.483l0.51,3.734c0.162,1.19-0.592,2.313-1.754,2.612l-16.981,4.384
	c-1.162,0.3-2.366-0.317-2.799-1.437l-7.544-19.464c-0.317-0.818-0.155-1.746,0.42-2.408c0.576-0.663,1.471-0.952,2.326-0.753
	l4.848,1.132l2.55-5.565c0.294-0.642,0.859-1.118,1.541-1.301c0.682-0.183,1.409-0.051,1.984,0.357l5.022,3.571l3.641-3.256
	c0.653-0.583,1.575-0.76,2.396-0.457c0.822,0.302,1.41,1.034,1.528,1.902l1.658,12.153
	C658.248,368.901,671.332,382.572,671.332,399.241z M637.998,375.046l-1.935-14.182l-1.729,1.546
	c-0.824,0.738-2.049,0.806-2.951,0.165l-4.231-3.008l-2.164,4.723c-0.469,1.023-1.594,1.575-2.69,1.319l-2.367-0.552l5.163,13.321
	L637.998,375.046z"/>
</svg>
