<?xml version="1.0" encoding="utf-8"?>
<!-- Generator: Adobe Illustrator 16.0.0, SVG Export Plug-In . SVG Version: 6.00 Build 0)  -->
<!DOCTYPE svg PUBLIC "-//W3C//DTD SVG 1.1//EN" "http://www.w3.org/Graphics/SVG/1.1/DTD/svg11.dtd">
<svg version="1.1" id="Layer_1" xmlns="http://www.w3.org/2000/svg" xmlns:xlink="http://www.w3.org/1999/xlink" x="0px" y="0px"
	 width="100px" height="100px" viewBox="110 190 100 100" enable-background="new 110 190 100 100" xml:space="preserve">
<g>
	<linearGradient id="SVGID_1_" gradientUnits="userSpaceOnUse" x1="136.8613" y1="214.3364" x2="185.1387" y2="214.3364">
		<stop  offset="0" style="stop-color:#D500F9"/>
		<stop  offset="0.1173" style="stop-color:#CB00FA"/>
		<stop  offset="0.3917" style="stop-color:#B800FD"/>
		<stop  offset="0.6796" style="stop-color:#AE00FF"/>
		<stop  offset="1" style="stop-color:#AA00FF"/>
	</linearGradient>
	<path fill="url(#SVGID_1_)" d="M138.124,215.593h45.76c0.687,0,1.255-0.567,1.255-1.262c0-0.694-0.56-1.25-1.255-1.25h-45.76
		c-0.691,0-1.263,0.557-1.263,1.25C136.861,215.025,137.433,215.593,138.124,215.593z"/>
	<linearGradient id="SVGID_2_" gradientUnits="userSpaceOnUse" x1="136.8613" y1="222.6694" x2="185.1387" y2="222.6694">
		<stop  offset="0" style="stop-color:#D500F9"/>
		<stop  offset="0.1173" style="stop-color:#CB00FA"/>
		<stop  offset="0.3917" style="stop-color:#B800FD"/>
		<stop  offset="0.6796" style="stop-color:#AE00FF"/>
		<stop  offset="1" style="stop-color:#AA00FF"/>
	</linearGradient>
	<path fill="url(#SVGID_2_)" d="M138.124,223.921h45.76c0.687,0,1.255-0.554,1.255-1.242c0-0.694-0.56-1.262-1.255-1.262h-45.76
		c-0.691,0-1.263,0.568-1.263,1.262C136.861,223.367,137.433,223.921,138.124,223.921z"/>
	<linearGradient id="SVGID_3_" gradientUnits="userSpaceOnUse" x1="136.8613" y1="231.0254" x2="185.1387" y2="231.0254">
		<stop  offset="0" style="stop-color:#D500F9"/>
		<stop  offset="0.1173" style="stop-color:#CB00FA"/>
		<stop  offset="0.3917" style="stop-color:#B800FD"/>
		<stop  offset="0.6796" style="stop-color:#AE00FF"/>
		<stop  offset="1" style="stop-color:#AA00FF"/>
	</linearGradient>
	<path fill="url(#SVGID_3_)" d="M138.124,232.278h45.76c0.687,0,1.255-0.556,1.255-1.25c0-0.691-0.56-1.255-1.255-1.255h-45.76
		c-0.691,0-1.263,0.565-1.263,1.255C136.861,231.723,137.433,232.278,138.124,232.278z"/>
	<linearGradient id="SVGID_4_" gradientUnits="userSpaceOnUse" x1="136.8613" y1="247.7178" x2="185.1387" y2="247.7178">
		<stop  offset="0" style="stop-color:#D500F9"/>
		<stop  offset="0.1173" style="stop-color:#CB00FA"/>
		<stop  offset="0.3917" style="stop-color:#B800FD"/>
		<stop  offset="0.6796" style="stop-color:#AE00FF"/>
		<stop  offset="1" style="stop-color:#AA00FF"/>
	</linearGradient>
	<path fill="url(#SVGID_4_)" d="M138.124,248.971h45.76c0.687,0,1.255-0.556,1.255-1.26c0-0.679-0.56-1.246-1.255-1.246h-45.76
		c-0.691,0-1.263,0.559-1.263,1.246C136.861,248.413,137.433,248.971,138.124,248.971z"/>
	<linearGradient id="SVGID_5_" gradientUnits="userSpaceOnUse" x1="136.8613" y1="256.0703" x2="185.1387" y2="256.0703">
		<stop  offset="0" style="stop-color:#D500F9"/>
		<stop  offset="0.1173" style="stop-color:#CB00FA"/>
		<stop  offset="0.3917" style="stop-color:#B800FD"/>
		<stop  offset="0.6796" style="stop-color:#AE00FF"/>
		<stop  offset="1" style="stop-color:#AA00FF"/>
	</linearGradient>
	<path fill="url(#SVGID_5_)" d="M138.124,257.327h45.76c0.687,0,1.255-0.567,1.255-1.261c0-0.692-0.56-1.252-1.255-1.252h-45.76
		c-0.691,0-1.263,0.558-1.263,1.252C136.861,256.76,137.433,257.327,138.124,257.327z"/>
	<linearGradient id="SVGID_6_" gradientUnits="userSpaceOnUse" x1="136.8613" y1="264.4121" x2="185.1387" y2="264.4121">
		<stop  offset="0" style="stop-color:#D500F9"/>
		<stop  offset="0.1173" style="stop-color:#CB00FA"/>
		<stop  offset="0.3917" style="stop-color:#B800FD"/>
		<stop  offset="0.6796" style="stop-color:#AE00FF"/>
		<stop  offset="1" style="stop-color:#AA00FF"/>
	</linearGradient>
	<path fill="url(#SVGID_6_)" d="M138.124,265.66h45.76c0.687,0,1.255-0.555,1.255-1.241c0-0.692-0.56-1.256-1.255-1.256h-45.76
		c-0.691,0-1.263,0.563-1.263,1.256C136.861,265.107,137.433,265.66,138.124,265.66z"/>
	<linearGradient id="SVGID_7_" gradientUnits="userSpaceOnUse" x1="123.3359" y1="239.3691" x2="198.6641" y2="239.3691">
		<stop  offset="0" style="stop-color:#D500F9"/>
		<stop  offset="0.1173" style="stop-color:#CB00FA"/>
		<stop  offset="0.3917" style="stop-color:#B800FD"/>
		<stop  offset="0.6796" style="stop-color:#AE00FF"/>
		<stop  offset="1" style="stop-color:#AA00FF"/>
	</linearGradient>
	<path fill="url(#SVGID_7_)" d="M196.581,193.852h-71.142c-1.162,0-2.103,0.926-2.103,2.083v86.866c0,1.158,0.94,2.085,2.103,2.085
		h71.142c1.144,0,2.083-0.934,2.083-2.085v-86.866C198.664,194.777,197.724,193.852,196.581,193.852z M194.497,280.729h-66.978
		v-82.709h66.977L194.497,280.729L194.497,280.729z"/>
</g>
</svg>
