<?xml version="1.0" encoding="utf-8"?>
<!-- Generator: Adobe Illustrator 16.0.0, SVG Export Plug-In . SVG Version: 6.00 Build 0)  -->
<!DOCTYPE svg PUBLIC "-//W3C//DTD SVG 1.1//EN" "http://www.w3.org/Graphics/SVG/1.1/DTD/svg11.dtd">
<svg version="1.1" id="Capa_1" xmlns="http://www.w3.org/2000/svg" xmlns:xlink="http://www.w3.org/1999/xlink" x="0px" y="0px"
	 width="100px" height="100px" viewBox="590 350 100 100" enable-background="new 590 350 100 100" xml:space="preserve">
<linearGradient id="SVGID_1_" gradientUnits="userSpaceOnUse" x1="594.6113" y1="400.001" x2="685.3906" y2="400.001">
	<stop  offset="0" style="stop-color:#D500F9"/>
	<stop  offset="0.1173" style="stop-color:#CB00FA"/>
	<stop  offset="0.3917" style="stop-color:#B800FD"/>
	<stop  offset="0.6796" style="stop-color:#AE00FF"/>
	<stop  offset="1" style="stop-color:#AA00FF"/>
</linearGradient>
<path fill="url(#SVGID_1_)" d="M602.216,368.195h-5.136c-1.364,0-2.469-1.105-2.469-2.469c0-1.363,1.105-2.468,2.469-2.468h5.136
	c1.364,0,2.469,1.104,2.469,2.468C604.686,367.089,603.579,368.195,602.216,368.195z M620.637,387.119
	c0,1.363,1.105,2.469,2.469,2.469h0.078c1.364,0,2.469-1.105,2.469-2.469c0-0.062-0.002-0.122-0.006-0.181h1.396
	c1.364,0,2.469-1.105,2.469-2.469s-1.105-2.468-2.469-2.468h-7.796c-1.363,0-2.469,1.104-2.469,2.468s1.105,2.469,2.469,2.469h1.397
	C620.639,386.998,620.637,387.058,620.637,387.119z M602.858,371.875l-3.109,3.109c-0.964,0.964-0.964,2.526,0,3.491
	c0.482,0.482,1.114,0.723,1.745,0.723c0.632,0,1.265-0.241,1.746-0.723l3.108-3.109c0.964-0.964,0.964-2.527,0-3.492
	C605.384,370.91,603.821,370.91,602.858,371.875z M603.241,352.979c-0.964-0.964-2.528-0.964-3.492,0
	c-0.964,0.964-0.964,2.527,0,3.492l3.109,3.108c0.481,0.482,1.113,0.723,1.745,0.723c0.633,0,1.264-0.241,1.746-0.723
	c0.964-0.964,0.964-2.527,0-3.492L603.241,352.979z M617.652,379.405c-1.363,0-2.469-1.105-2.469-2.469
	c0-1.513-0.399-1.959-1.275-2.937c-1.215-1.356-2.88-3.215-2.88-7.588c0-6.681,5.436-12.117,12.117-12.117
	c6.681,0,12.116,5.436,12.116,12.117c0,4.373-1.664,6.231-2.879,7.588c-0.876,0.978-1.275,1.424-1.275,2.937
	c0,1.364-1.104,2.469-2.468,2.469H617.652z M617.587,370.705c0.77,0.86,1.746,1.949,2.23,3.762h6.655
	c0.486-1.813,1.461-2.901,2.232-3.762c0.976-1.089,1.62-1.809,1.62-4.294c0-3.958-3.22-7.18-7.179-7.18
	c-3.958,0-7.179,3.221-7.179,7.18C615.967,368.896,616.611,369.616,617.587,370.705z M652.72,365.913
	c-4.174,0-8.246,0.786-12.105,2.336c-1.265,0.509-1.878,1.947-1.37,3.212c0.509,1.265,1.946,1.879,3.212,1.37
	c3.271-1.314,6.724-1.98,10.263-1.98c15.293,0,27.732,12.44,27.732,27.732v23.74c0,5.274-4.29,9.564-9.563,9.564
	c-1.364,0-2.471,1.104-2.471,2.469c0,1.363,1.106,2.47,2.471,2.47c7.996,0,14.501-6.507,14.501-14.503v-23.74
	C685.391,380.569,670.734,365.913,652.72,365.913z M671.234,442.916c-5.841-1.783-9.302-4.319-10.286-7.54
	c-0.399-1.302-1.777-2.036-3.084-1.637c-1.304,0.397-2.038,1.777-1.639,3.081c1.493,4.887,6.06,8.525,13.568,10.817
	c0.239,0.074,0.481,0.108,0.721,0.108c1.057,0,2.035-0.684,2.36-1.749C673.272,444.693,672.539,443.313,671.234,442.916z
	 M673.477,404.74c0-3.832-0.612-7.366-1.819-10.505c-0.032-0.092-0.072-0.183-0.117-0.271c-0.163-0.325-0.392-0.601-0.663-0.816
	c-0.189-0.152-0.397-0.272-0.619-0.362c-0.444-0.178-0.941-0.229-1.431-0.125c-0.19,0.04-0.377,0.103-0.559,0.19
	c-0.141,0.067-0.272,0.146-0.395,0.235c-3.606,2.496-9.104,3.933-15.099,3.944c-1.363,0.003-2.467,1.111-2.463,2.474
	c0.002,1.363,1.106,2.464,2.469,2.464c0.001,0,0.003,0,0.005,0c5.616-0.011,10.941-1.154,15.106-3.195
	c0.43,1.851,0.646,3.847,0.646,5.968c0,7.445-3.813,14.296-9.956,17.876c-2.391,1.393-4.198,2.017-5.862,2.021
	c-1.664-0.004-3.472-0.628-5.863-2.021c-6.141-3.58-9.955-10.431-9.955-17.876c0-2.119,0.217-4.114,0.646-5.963
	c0.456,0.224,0.926,0.438,1.409,0.64l0.249,0.104c1.655,0.696,2.851,1.199,4.227,0.612c1.351-0.577,1.813-1.779,2.35-3.173
	c0.113-0.296,0.242-0.632,0.396-1.013c0.653-1.617,1.371-3.612,1.636-4.541c0.374-1.312-0.387-2.677-1.698-3.05
	c-1.312-0.373-2.677,0.388-3.052,1.698c-0.192,0.678-0.827,2.465-1.464,4.044c-0.137,0.338-0.256,0.644-0.361,0.92
	c-0.04-0.017-0.079-0.033-0.119-0.05l-0.253-0.106c-1.229-0.515-2.338-1.113-3.299-1.778c-0.12-0.088-0.249-0.165-0.388-0.232
	c-0.183-0.089-0.374-0.154-0.567-0.194c-0.48-0.102-0.968-0.054-1.406,0.117c-0.239,0.093-0.466,0.225-0.669,0.392
	c-0.257,0.211-0.476,0.478-0.633,0.79c-0.047,0.091-0.086,0.184-0.12,0.277c-1.207,3.138-1.818,6.672-1.818,10.504
	c0,9.196,4.754,17.68,12.407,22.142c3.186,1.856,5.758,2.688,8.342,2.692c0.003,0,0.005,0,0.007,0s0.004,0,0.005,0
	c2.586-0.005,5.158-0.836,8.344-2.692C668.722,422.42,673.477,413.937,673.477,404.74z M647.431,433.739
	c-1.304-0.401-2.684,0.335-3.083,1.639c-0.984,3.219-4.446,5.755-10.287,7.538c-1.304,0.397-2.039,1.777-1.641,3.081
	c0.325,1.065,1.304,1.749,2.36,1.749c0.239,0,0.482-0.034,0.723-0.108c7.508-2.292,12.073-5.931,13.566-10.817
	C649.467,435.517,648.733,434.137,647.431,433.739z M637.02,434.356c0-1.364-1.104-2.469-2.468-2.469
	c-5.274,0-9.565-4.29-9.565-9.564v-23.74c0-0.995,0.054-1.998,0.16-2.979c0.146-1.355-0.834-2.574-2.189-2.72
	c-1.354-0.148-2.573,0.834-2.72,2.189c-0.125,1.157-0.188,2.338-0.188,3.509v23.741c0,7.996,6.505,14.501,14.502,14.501
	C635.916,436.826,637.02,435.72,637.02,434.356z"/>
</svg>
