<?xml version="1.0" encoding="utf-8"?>
<!-- Generator: Adobe Illustrator 16.0.0, SVG Export Plug-In . SVG Version: 6.00 Build 0)  -->
<!DOCTYPE svg PUBLIC "-//W3C//DTD SVG 1.1//EN" "http://www.w3.org/Graphics/SVG/1.1/DTD/svg11.dtd">
<svg version="1.1" xmlns="http://www.w3.org/2000/svg" xmlns:xlink="http://www.w3.org/1999/xlink" x="0px" y="0px"
	 width="334.688px" height="129.211px" viewBox="0 0 334.688 129.211" enable-background="new 0 0 334.688 129.211"
	 xml:space="preserve">
<g id="Layer_1">
	<g>
		<g>
			<path fill="#511C74" d="M96.521,16.089v3.682H71.455v34.448h21.501v3.682H71.455v34.564h25.065v3.68H67.773V16.089H96.521z"/>
			<path fill="#511C74" d="M137.024,96.028h-3.8V73.815c0-9.619-5.466-15.201-14.969-15.201h-10.69v37.414h-3.68V15.969h16.748
				c12.828,0,17.343,6.651,17.343,21.261c0,7.13-1.426,12.473-4.396,15.919c-1.308,1.543-4.04,2.73-5.939,3.682
				c1.543,0.71,2.85,1.663,4.037,2.85c3.563,3.446,5.346,8.078,5.346,14.134V96.028z M107.565,54.81h10.69
				c10.573,0,16.036-5.226,16.036-17.579c0-12.471-3.088-17.459-13.658-17.459h-13.068V54.81z"/>
			<path fill="#511C74" d="M144.507,15.969h34.925v3.802h-15.68v76.257h-3.685V19.771h-15.561V15.969z"/>
			<path fill="#511C74" d="M190.836,96.145h-3.683V16.089h3.683V96.145z"/>
			<path fill="#511C74" d="M199.505,37.23c0-8.671,2.256-14.133,5.582-17.223c3.327-3.089,7.604-3.919,11.523-3.919
				c3.799,0,8.077,0.83,11.403,3.919c3.326,3.089,5.582,8.552,5.582,17.223v1.902h-3.8V37.23c0-12.234-4.633-17.459-13.186-17.459
				c-8.672,0-13.304,5.226-13.304,17.459v37.654c0,12.236,4.396,17.581,13.304,17.581c4.278,0,7.604-1.426,9.859-4.156
				c2.256-2.969,3.326-7.366,3.326-13.425v-1.897h3.8v1.897c0,8.911-2.256,14.016-5.582,17.225s-7.604,4.036-11.403,4.036
				c-3.92,0-8.196-0.828-11.523-4.036c-3.326-3.208-5.582-8.314-5.582-17.225V37.23z"/>
		</g>
		<g>
			<path fill="#FFE100" d="M253.956,97.467l-18.582-81.308h9.05l5.429,23.283h15.442l5.064-23.283h9.048L260.95,97.467H253.956z
				 M267.949,42.698h-20.995l-5.186-23.164h-2.291l17.13,74.676h1.688l17.01-74.676h-2.171L267.949,42.698z M247.438,44.87h20.029
				l-10.016,43.789L247.438,44.87z M263.242,48.128h-11.581l5.79,25.814L263.242,48.128z"/>
		</g>
		<g>
			<path fill="#511C74" d="M314.881,95.562H286.61V15.505h3.801v76.374h24.47V95.562z"/>
		</g>
		<g>
			<g>
				<polygon fill="#FFE100" points="55.752,20.252 58.474,20.252 48.567,63.446 50.652,71.811 63.35,16.241 52.597,16.241 
					45.104,49.546 47.224,58.046 				"/>
			</g>
			<g>
				<polygon fill="#511C74" points="41.719,92.273 39.566,92.273 22.295,19.983 25.021,19.983 40.714,86.113 46.042,62.503 
					43.976,53.837 40.714,68.33 28.175,15.969 17.276,15.969 36.414,96.145 44.875,96.145 49.373,76.46 47.321,67.856 				"/>
			</g>
		</g>
		
			<text transform="matrix(1 0 0 1 35.0713 114.519)" fill="#511C74" font-family="'AvenirLTStd-Roman'" font-size="10.7711" letter-spacing="15">POLE &amp; FITNESS</text>
	</g>
</g>
<g id="Layer_2">
</g>
</svg>
