<?xml version="1.0" encoding="utf-8"?>
<!-- Generator: Adobe Illustrator 16.0.0, SVG Export Plug-In . SVG Version: 6.00 Build 0)  -->
<!DOCTYPE svg PUBLIC "-//W3C//DTD SVG 1.1//EN" "http://www.w3.org/Graphics/SVG/1.1/DTD/svg11.dtd">
<svg version="1.1" id="Capa_1" xmlns="http://www.w3.org/2000/svg" xmlns:xlink="http://www.w3.org/1999/xlink" x="0px" y="0px"
	 width="512px" height="512px" viewBox="0 0 512 512" enable-background="new 0 0 512 512" xml:space="preserve">
<g>
	
		<linearGradient id="Facebook__x28_alt_x29__1_" gradientUnits="userSpaceOnUse" x1="256.0005" y1="512" x2="256.0005" y2="4.882813e-004">
		<stop  offset="0" style="stop-color:#D500F9"/>
		<stop  offset="0.1173" style="stop-color:#CB00FA"/>
		<stop  offset="0.3917" style="stop-color:#B800FD"/>
		<stop  offset="0.6796" style="stop-color:#AE00FF"/>
		<stop  offset="1" style="stop-color:#AA00FF"/>
	</linearGradient>
	<path id="Facebook__x28_alt_x29_" fill="url(#Facebook__x28_alt_x29__1_)" d="M512,85.339C512,40.499,471.518,0,426.667,0H85.333
		C40.482,0,0,40.499,0,85.339v341.322C0,471.501,40.482,512,85.339,512H256V318.578h-62.578v-85.333H256v-33.246
		c0-57.338,43.054-108.976,96-108.976h68.978v85.333H352c-7.549,0-16.355,9.165-16.355,22.892v33.997h85.333v85.333h-85.333V512
		h91.022C471.518,512,512,471.501,512,426.661V85.339z"/>
</g>
</svg>
