<?xml version="1.0" encoding="utf-8"?>
<!-- Generator: Adobe Illustrator 16.0.0, SVG Export Plug-In . SVG Version: 6.00 Build 0)  -->
<!DOCTYPE svg PUBLIC "-//W3C//DTD SVG 1.1//EN" "http://www.w3.org/Graphics/SVG/1.1/DTD/svg11.dtd">
<svg version="1.1" id="Layer_1" xmlns="http://www.w3.org/2000/svg" xmlns:xlink="http://www.w3.org/1999/xlink" x="0px" y="0px"
	 width="305.5px" height="286px" viewBox="0 0 305.5 286" enable-background="new 0 0 305.5 286" xml:space="preserve">
<g>
	<g>
		<g id="Nuva_Logo_2_">
			<path fill="#FAFAFA" d="M137.15,254.323c-1.667,0.518-4.21,0.127-5.65-0.854l-77.43-52.825c-1.44-0.981-2.726-3.209-2.856-4.947
				l-7.007-93.452c-0.13-1.743,0.81-4.133,2.087-5.318l68.68-63.74c1.279-1.188,3.736-1.947,5.459-1.688l92.646,13.959
				c1.724,0.26,3.851,1.709,4.723,3.223l46.859,81.184c0.872,1.51,1.063,4.073,0.428,5.697l-34.219,87.258
				c-0.635,1.627-2.521,3.377-4.187,3.887L137.15,254.323L137.15,254.323z M183.874,178.606c1.667-0.514,3.551-2.261,4.19-3.884
				l14.693-37.476c0.637-1.62,0.445-4.188-0.426-5.698l-20.125-34.863c-0.872-1.51-2.997-2.959-4.721-3.216l-39.786-6
				c-1.726-0.26-4.182,0.5-5.461,1.687l-29.493,27.372c-1.279,1.19-2.217,3.583-2.087,5.32l3.01,40.135
				c0.13,1.738,1.416,3.967,2.856,4.947l33.251,22.688c1.442,0.984,3.983,1.365,5.651,0.853L183.874,178.606L183.874,178.606z"/>
		</g>
	</g>
</g>
</svg>
