<?xml version="1.0" encoding="utf-8"?>
<!-- Generator: Adobe Illustrator 16.0.0, SVG Export Plug-In . SVG Version: 6.00 Build 0)  -->
<!DOCTYPE svg PUBLIC "-//W3C//DTD SVG 1.1//EN" "http://www.w3.org/Graphics/SVG/1.1/DTD/svg11.dtd">
<svg version="1.1" xmlns="http://www.w3.org/2000/svg" xmlns:xlink="http://www.w3.org/1999/xlink" x="0px" y="0px"
	 width="334.688px" height="129.211px" viewBox="0 0 334.688 129.211" enable-background="new 0 0 334.688 129.211"
	 xml:space="preserve">
<g id="Layer_1">
	<g>
		<g>
			<g>
				<path fill="#FFFFFF" d="M99.135,11v3.6H74.649v33.647h21.002v3.596H74.649v33.764h24.485v3.598H71.054V11H99.135z"/>
			</g>
			<g>
				<path fill="#FFFFFF" d="M138.7,89.088h-3.713V67.39c0-9.397-5.337-14.852-14.619-14.852h-10.442v36.549h-3.598V10.887h16.36
					c12.53,0,16.939,6.495,16.939,20.766c0,6.964-1.392,12.186-4.294,15.55c-1.275,1.508-3.942,2.668-5.799,3.599
					c1.507,0.693,2.784,1.622,3.945,2.782c3.479,3.364,5.22,7.892,5.22,13.806V89.088z M109.926,48.826h10.442
					c10.325,0,15.662-5.106,15.662-17.174c0-12.182-3.015-17.053-13.342-17.053h-12.763V48.826z"/>
			</g>
			<g>
				<path fill="#FFFFFF" d="M146.011,10.887h34.113V14.6h-15.315v74.488h-3.598V14.6h-15.2V10.887z"/>
			</g>
			<g>
				<path fill="#FFFFFF" d="M191.265,89.205h-3.598V11h3.598V89.205z"/>
			</g>
			<g>
				<path fill="#FFFFFF" d="M199.733,31.652c0-8.467,2.204-13.805,5.454-16.822c3.247-3.018,7.424-3.831,11.254-3.831
					c3.713,0,7.892,0.813,11.139,3.831c3.248,3.017,5.454,8.355,5.454,16.822v1.858h-3.713v-1.858
					c0-11.949-4.524-17.053-12.88-17.053c-8.471,0-12.995,5.104-12.995,17.053v36.783c0,11.952,4.292,17.171,12.995,17.171
					c4.177,0,7.426-1.39,9.631-4.06c2.203-2.9,3.249-7.194,3.249-13.112v-1.854h3.713v1.854c0,8.703-2.206,13.693-5.454,16.825
					c-3.247,3.134-7.426,3.945-11.139,3.945c-3.83,0-8.007-0.811-11.254-3.945c-3.25-3.132-5.454-8.122-5.454-16.825V31.652z"/>
			</g>
		</g>
		<g>
			<g>
				<path fill="#FFE100" d="M252.919,90.495l-18.147-79.426h8.839l5.302,22.746h15.083l4.95-22.746h8.839l-18.031,79.426H252.919z
					 M266.59,36.996h-20.505l-5.069-22.627h-2.239l16.735,72.944h1.649l16.615-72.944h-2.119L266.59,36.996z M246.556,39.115h19.562
					l-9.779,42.775L246.556,39.115z M261.992,42.297h-11.312l5.657,25.218L261.992,42.297z"/>
			</g>
		</g>
		<g>
			<g>
				<path fill="#FFFFFF" d="M312.436,88.635h-27.614V10.43h3.713v74.607h23.901V88.635z"/>
			</g>
		</g>
		<g>
			<g>
				<g>
					<polygon fill="#FFE100" points="59.312,15.071 61.971,15.071 52.293,57.261 54.332,65.432 66.735,11.15 56.228,11.15 
						48.909,43.683 50.979,51.985 					"/>
				</g>
			</g>
			<g>
				<g>
					<polygon fill="#FFFFFF" points="45.604,85.423 43.501,85.423 26.63,14.807 29.293,14.807 44.621,79.401 49.826,56.339 
						47.81,47.876 44.621,62.034 32.373,10.887 21.728,10.887 40.421,89.205 48.686,89.205 53.077,69.974 51.074,61.57 					"/>
				</g>
			</g>
		</g>
		<g>
			<path fill="#FFFFFF" d="M40.034,111.146h2.21c1.367,0,2.607,0.483,2.607,2.04c0,1.63-1.389,2.062-2.44,2.062h-1.492v3.345h-0.885
				V111.146z M40.919,114.427h1.492c0.885,0,1.495-0.399,1.495-1.23s-0.61-1.231-1.495-1.231h-1.492V114.427z"/>
			<path fill="#FFFFFF" d="M60.741,114.869c0-2.251,1.631-3.913,3.891-3.913c2.262,0,3.893,1.662,3.893,3.913
				c0,2.25-1.631,3.913-3.893,3.913C62.372,118.782,60.741,117.12,60.741,114.869z M67.577,114.869c0-1.715-1.2-3.092-2.945-3.092
				s-2.943,1.377-2.943,3.092c0,1.714,1.198,3.092,2.943,3.092S67.577,116.583,67.577,114.869z"/>
			<path fill="#FFFFFF" d="M84.846,111.146h0.884v6.626h3.407v0.82h-4.291V111.146z"/>
			<path fill="#FFFFFF" d="M105.005,111.146h4.681v0.82h-3.797v2.335h3.544v0.821h-3.544v2.65h3.984v0.82h-4.868V111.146z"/>
			<path fill="#FFFFFF" d="M148.267,117.52c-0.599,0.757-1.24,1.199-2.229,1.199c-1.263,0-2.366-0.789-2.366-2.125
				c0-1.052,0.756-1.746,1.651-2.156c-0.485-0.495-0.896-1.01-0.896-1.725c0-1.104,0.896-1.704,1.926-1.704
				c1.01,0,1.86,0.557,1.86,1.652c0,0.936-0.83,1.503-1.578,1.893l1.578,1.673l0.999-1.673h1l-1.43,2.293l1.703,1.746h-1.21
				L148.267,117.52z M145.868,114.974c-0.631,0.347-1.314,0.789-1.314,1.588c0,0.799,0.673,1.398,1.453,1.398
				c0.767,0,1.25-0.483,1.725-1.031L145.868,114.974z M146.09,114.017c0.557-0.305,1.242-0.642,1.242-1.378
				c0-0.547-0.433-0.873-0.947-0.873c-0.59,0-1.072,0.39-1.072,1c0,0.399,0.262,0.715,0.514,0.978L146.09,114.017z"/>
			<path fill="#FFFFFF" d="M184.284,111.146h4.616v0.82h-3.733v2.461h3.47v0.821h-3.47v3.345h-0.883V111.146z"/>
			<path fill="#FFFFFF" d="M205.033,111.146h0.882v7.446h-0.882V111.146z"/>
			<path fill="#FFFFFF" d="M227.661,111.966h-2.46v6.626h-0.885v-6.626h-2.461v-0.82h5.806V111.966z"/>
			<path fill="#FFFFFF" d="M243.604,111.146h1.114l4.313,6.184h0.021v-6.184h0.885v7.446h-1.114l-4.313-6.185h-0.021v6.185h-0.885
				V111.146z"/>
			<path fill="#FFFFFF" d="M266.688,111.146h4.681v0.82h-3.796v2.335h3.543v0.821h-3.543v2.65h3.984v0.82h-4.869V111.146z"/>
			<path fill="#FFFFFF" d="M291.36,112.46c-0.295-0.473-0.821-0.684-1.358-0.684c-0.778,0-1.587,0.368-1.587,1.251
				c0,0.684,0.378,0.989,1.565,1.367c1.158,0.368,2.23,0.747,2.23,2.208c0,1.483-1.272,2.178-2.619,2.178
				c-0.861,0-1.787-0.284-2.293-1.031l0.759-0.621c0.315,0.547,0.946,0.831,1.587,0.831c0.758,0,1.619-0.441,1.619-1.293
				c0-0.915-0.62-1.073-1.945-1.515c-1.052-0.347-1.851-0.81-1.851-2.051c0-1.431,1.231-2.146,2.534-2.146
				c0.832,0,1.536,0.231,2.084,0.874L291.36,112.46z"/>
			<path fill="#FFFFFF" d="M312.107,112.46c-0.295-0.473-0.82-0.684-1.357-0.684c-0.777,0-1.589,0.368-1.589,1.251
				c0,0.684,0.379,0.989,1.568,1.367c1.156,0.368,2.23,0.747,2.23,2.208c0,1.483-1.273,2.178-2.619,2.178
				c-0.864,0-1.79-0.284-2.294-1.031l0.757-0.621c0.315,0.547,0.947,0.831,1.589,0.831c0.757,0,1.62-0.441,1.62-1.293
				c0-0.915-0.621-1.073-1.946-1.515c-1.052-0.347-1.852-0.81-1.852-2.051c0-1.431,1.23-2.146,2.535-2.146
				c0.83,0,1.537,0.231,2.082,0.874L312.107,112.46z"/>
		</g>
	</g>
</g>
<g id="Layer_2">
</g>
</svg>
