<?xml version="1.0" encoding="utf-8"?>
<!-- Generator: Adobe Illustrator 16.0.0, SVG Export Plug-In . SVG Version: 6.00 Build 0)  -->
<!DOCTYPE svg PUBLIC "-//W3C//DTD SVG 1.1//EN" "http://www.w3.org/Graphics/SVG/1.1/DTD/svg11.dtd">
<svg version="1.1" id="Layer_1" xmlns="http://www.w3.org/2000/svg" xmlns:xlink="http://www.w3.org/1999/xlink" x="0px" y="0px"
	 width="334.688px" height="129.211px" viewBox="0 0 334.688 129.211" enable-background="new 0 0 334.688 129.211"
	 xml:space="preserve">
<g id="Layer_1_1_">
	<g>
		<g>
			<g>
				<path fill="#511C74" d="M96.521,16.089v3.682H71.455v34.448h21.501v3.682H71.455v34.564H96.52v3.68H67.773V16.089H96.521z"/>
			</g>
			<g>
				<path fill="#511C74" d="M137.024,96.027h-3.8V73.814c0-9.619-5.466-15.2-14.969-15.2h-10.69v37.413h-3.68V15.969h16.748
					c12.828,0,17.343,6.651,17.343,21.261c0,7.13-1.426,12.473-4.396,15.919c-1.308,1.543-4.04,2.73-5.939,3.682
					c1.543,0.71,2.85,1.663,4.037,2.85c3.563,3.446,5.346,8.078,5.346,14.133V96.027z M107.565,54.81h10.69
					c10.573,0,16.036-5.226,16.036-17.579c0-12.471-3.088-17.459-13.658-17.459h-13.068V54.81z"/>
			</g>
			<g>
				<path fill="#511C74" d="M144.507,15.969h34.925v3.802h-15.68v76.256h-3.685V19.771h-15.561L144.507,15.969L144.507,15.969z"/>
			</g>
			<g>
				<path fill="#511C74" d="M190.836,96.145h-3.684V16.089h3.684V96.145z"/>
			</g>
			<g>
				<path fill="#511C74" d="M199.505,37.23c0-8.671,2.256-14.133,5.582-17.223c3.327-3.089,7.604-3.919,11.522-3.919
					c3.8,0,8.078,0.83,11.404,3.919c3.325,3.089,5.582,8.552,5.582,17.223v1.902h-3.801V37.23c0-12.234-4.633-17.459-13.186-17.459
					c-8.672,0-13.305,5.226-13.305,17.459v37.654c0,12.236,4.396,17.581,13.305,17.581c4.277,0,7.604-1.426,9.858-4.156
					c2.257-2.969,3.326-7.365,3.326-13.425v-1.897h3.8v1.897c0,8.911-2.256,14.017-5.582,17.226s-7.604,4.035-11.402,4.035
					c-3.92,0-8.196-0.828-11.523-4.035c-3.326-3.209-5.582-8.314-5.582-17.226L199.505,37.23L199.505,37.23z"/>
			</g>
		</g>
		<g>
			<g>
				<path fill="#FFFFFF" d="M253.956,97.467l-18.582-81.308h9.05l5.43,23.283h15.441l5.064-23.283h9.048L260.95,97.467H253.956z
					 M267.949,42.698h-20.995l-5.187-23.164h-2.291l17.131,74.676h1.688l17.01-74.676h-2.171L267.949,42.698z M247.438,44.87h20.029
					l-10.016,43.789L247.438,44.87z M263.242,48.128h-11.581l5.79,25.813L263.242,48.128z"/>
			</g>
		</g>
		<g>
			<g>
				<path fill="#511C74" d="M314.881,95.563h-28.271V15.505h3.802v76.374h24.47V95.563z"/>
			</g>
		</g>
		<g>
			<g>
				<g>
					<polygon fill="#FFFFFF" points="55.752,20.252 58.474,20.252 48.567,63.446 50.652,71.811 63.35,16.241 52.597,16.241 
						45.104,49.546 47.224,58.046 					"/>
				</g>
			</g>
			<g>
				<g>
					<polygon fill="#511C74" points="41.719,92.273 39.566,92.273 22.295,19.983 25.021,19.983 40.714,86.113 46.042,62.503 
						43.976,53.837 40.714,68.33 28.175,15.969 17.276,15.969 36.414,96.145 44.875,96.145 49.373,76.46 47.321,67.855 					"/>
				</g>
			</g>
		</g>
		<g enable-background="new    ">
			<path fill="#511C74" d="M36.02,106.892h2.262c1.4,0,2.671,0.495,2.671,2.09c0,1.67-1.422,2.111-2.499,2.111h-1.53v3.426H36.02
				V106.892z M36.924,110.253h1.53c0.905,0,1.529-0.41,1.529-1.261s-0.625-1.261-1.529-1.261h-1.53V110.253z"/>
			<path fill="#511C74" d="M56.958,110.705c0-2.306,1.67-4.008,3.986-4.008s3.986,1.702,3.986,4.008s-1.67,4.008-3.986,4.008
				S56.958,113.011,56.958,110.705z M63.96,110.705c0-1.756-1.229-3.167-3.017-3.167s-3.016,1.411-3.016,3.167
				s1.228,3.167,3.016,3.167S63.96,112.461,63.96,110.705z"/>
			<path fill="#511C74" d="M81.376,106.892h0.905v6.787h3.49v0.84h-4.396V106.892z"/>
			<path fill="#511C74" d="M101.755,106.892h4.794v0.84h-3.889v2.392h3.63v0.841h-3.63v2.715h4.083v0.84h-4.988V106.892z"/>
			<path fill="#511C74" d="M145.529,113.42c-0.614,0.775-1.271,1.228-2.284,1.228c-1.293,0-2.424-0.808-2.424-2.176
				c0-1.077,0.775-1.788,1.691-2.208c-0.496-0.507-0.916-1.034-0.916-1.767c0-1.132,0.916-1.746,1.972-1.746
				c1.034,0,1.907,0.571,1.907,1.691c0,0.959-0.851,1.541-1.616,1.939l1.616,1.713l1.023-1.713h1.023l-1.465,2.349l1.745,1.788
				h-1.239L145.529,113.42z M143.073,110.813c-0.646,0.355-1.347,0.809-1.347,1.627s0.689,1.433,1.487,1.433
				c0.786,0,1.282-0.495,1.767-1.056L143.073,110.813z M143.299,109.832c0.571-0.312,1.271-0.657,1.271-1.411
				c0-0.56-0.441-0.894-0.969-0.894c-0.604,0-1.099,0.398-1.099,1.023c0,0.409,0.27,0.732,0.528,1.002L143.299,109.832z"/>
			<path fill="#511C74" d="M181.881,106.892h4.729v0.84h-3.824v2.521h3.555v0.84h-3.555v3.426h-0.905V106.892z"/>
			<path fill="#511C74" d="M202.863,106.892h0.904v7.627h-0.904V106.892z"/>
			<path fill="#511C74" d="M225.773,107.731h-2.52v6.787h-0.906v-6.787h-2.52v-0.84h5.945V107.731z"/>
			<path fill="#511C74" d="M241.833,106.892h1.142l4.417,6.334h0.021v-6.334h0.905v7.627h-1.143l-4.416-6.334h-0.021v6.334h-0.905
				V106.892z"/>
			<path fill="#511C74" d="M265.206,106.892H270v0.84h-3.889v2.392h3.631v0.841h-3.631v2.715h4.082v0.84h-4.987V106.892z"/>
			<path fill="#511C74" d="M290.206,108.238c-0.302-0.485-0.84-0.7-1.39-0.7c-0.797,0-1.627,0.377-1.627,1.281
				c0,0.701,0.389,1.013,1.605,1.401c1.186,0.377,2.284,0.765,2.284,2.262c0,1.519-1.304,2.23-2.683,2.23
				c-0.883,0-1.832-0.291-2.349-1.056l0.776-0.636c0.322,0.56,0.969,0.851,1.626,0.851c0.776,0,1.659-0.452,1.659-1.325
				c0-0.937-0.636-1.099-1.993-1.551c-1.077-0.355-1.896-0.83-1.896-2.101c0-1.466,1.26-2.198,2.596-2.198
				c0.852,0,1.573,0.237,2.133,0.895L290.206,108.238z"/>
			<path fill="#511C74" d="M311.188,108.238c-0.302-0.485-0.841-0.7-1.39-0.7c-0.797,0-1.627,0.377-1.627,1.281
				c0,0.701,0.388,1.013,1.605,1.401c1.185,0.377,2.283,0.765,2.283,2.262c0,1.519-1.303,2.23-2.682,2.23
				c-0.884,0-1.832-0.291-2.35-1.056l0.776-0.636c0.323,0.56,0.97,0.851,1.626,0.851c0.776,0,1.66-0.452,1.66-1.325
				c0-0.937-0.637-1.099-1.994-1.551c-1.076-0.355-1.896-0.83-1.896-2.101c0-1.466,1.261-2.198,2.597-2.198
				c0.851,0,1.572,0.237,2.133,0.895L311.188,108.238z"/>
		</g>
	</g>
</g>
<g id="Layer_2">
</g>
</svg>
